<svg xmlns="http://www.w3.org/2000/svg" width="178.2" height="204.41" viewBox="0 0 178.2 204.41"><defs><style>.cls-1{fill:none;stroke:#000;stroke-miterpmit:10;stroke-width:3px;}</style></defs><g id="Layer_2" data-name="Layer 2"><g id="Layer_4" data-name="Layer 4"><path class="cls-1" d="M19.3,115.11V7.5l83.89,189.8V37.62c.06-2.71.64-15.83,11-25.12,10.54-9.47,27-11.12,41.06-3.9a45.52,45.52,0,0,1,12,11c33.41,44.54-32.14,139-35,143"/><path class="cls-1" d="M1.5,114.71V7.1L85.39,196.91V37.23c.06-2.72.64-15.83,11-25.12C106.91,2.64,123.32,1,137.43,8.21a45,45,0,0,1,12,11c33.42,44.54-32.14,139-35,143"/></g></g></svg>