<svg width="47" height="47" viewBox="0 0 47 47" fill="none" xmlns="http://www.w3.org/2000/svg">
<g clip-path="url(#clip0_2_9)">
<path d="M18.6864 35.484C20.939 35.484 22.7673 33.7232 22.7673 31.5535V27.623H18.6864C16.4338 27.623 14.6056 29.3839 14.6056 31.5535C14.6056 33.7232 16.4338 35.484 18.6864 35.484Z" fill="#0ACF83"/>
<path d="M14.6056 23.6925C14.6056 21.5228 16.4338 19.762 18.6864 19.762H22.7673V27.623H18.6864C16.4338 27.623 14.6056 25.8621 14.6056 23.6925Z" fill="#A259FF"/>
<path d="M14.6122 15.8315C14.6122 13.6619 16.4404 11.901 18.693 11.901H22.7739V19.762H18.693C16.4404 19.762 14.6122 18.0011 14.6122 15.8315Z" fill="#F24E1E"/>
<path d="M22.7673 11.901H26.8481C29.1008 11.901 30.929 13.6619 30.929 15.8315C30.929 18.0011 29.1008 19.762 26.8481 19.762H22.7673V11.901Z" fill="#FF7262"/>
<path d="M30.929 23.6925C30.929 25.8621 29.1008 27.623 26.8481 27.623C24.5955 27.623 22.7673 25.8621 22.7673 23.6925C22.7673 21.5228 24.5955 19.762 26.8481 19.762C29.1008 19.762 30.929 21.5228 30.929 23.6925Z" fill="#1ABCFE"/>
</g>
<defs>
<clipPath id="clip0_2_9">
<rect width="16.3267" height="23.583" fill="white" transform="translate(14.6039 11.901)"/>
</clipPath>
</defs>
</svg>
