<svg width="47" height="47" viewBox="0 0 47 47" fill="none" xmlns="http://www.w3.org/2000/svg">

<g clip-path="url(#clip0_2_20)">
<path d="M32.5953 31.4931H15.4093V15.1664H32.5953V31.4931Z" fill="#00C3FF"/>
<path d="M32.5953 31.4931H24.0023V15.1664H32.5953V31.4931Z" fill="#00C3FF"/>
<path d="M31.5883 30.5365H16.4163V16.123H31.5883V30.5365Z" fill="#063E8B"/>
<path d="M31.5883 30.5365H24.0023V16.123H31.5883V30.5365Z" fill="#063E8B"/>
<path d="M24.0023 29.528C23.5989 29.528 23.2195 29.3787 22.9343 29.1077L17.9203 24.3444C17.635 24.0734 17.4778 23.713 17.4778 23.3297C17.4778 22.9464 17.635 22.5861 17.9203 22.3151L22.9343 17.5518C23.2195 17.2807 23.5989 17.1315 24.0023 17.1315C24.4058 17.1315 24.7851 17.2807 25.0704 17.5518L30.0844 22.3151C30.3697 22.5861 30.5268 22.9464 30.5268 23.3297C30.5268 23.713 30.3697 24.0734 30.0844 24.3444L25.0704 29.1077C24.7851 29.3787 24.4058 29.528 24.0023 29.528ZM24.0023 18.0881C23.8678 18.0881 23.7414 18.1379 23.6463 18.2282L18.6323 22.9915C18.5372 23.0818 18.4848 23.202 18.4848 23.3297C18.4848 23.4575 18.5372 23.5776 18.6323 23.668L23.6463 28.4313C23.7414 28.5216 23.8678 28.5714 24.0023 28.5714C24.1368 28.5714 24.2633 28.5216 24.3584 28.4313L29.3724 23.668C29.4675 23.5776 29.5199 23.4575 29.5199 23.3297C29.5199 23.202 29.4675 23.0819 29.3724 22.9915L24.3584 18.2282C24.2633 18.1379 24.1368 18.0881 24.0023 18.0881Z" fill="#CCEFFF"/>
<path d="M30.0844 22.3151L25.0704 17.5518C24.7851 17.2807 24.4058 17.1315 24.0023 17.1315V18.0881C24.1368 18.0881 24.2632 18.1379 24.3584 18.2282L29.3723 22.9915C29.4674 23.0818 29.5198 23.202 29.5198 23.3297C29.5198 23.4575 29.4674 23.5776 29.3723 23.668L24.3584 28.4313C24.2633 28.5216 24.1368 28.5714 24.0023 28.5714V29.528C24.4058 29.528 24.7851 29.3787 25.0704 29.1077L30.0844 24.3444C30.3697 24.0734 30.5268 23.713 30.5268 23.3297C30.5268 22.9464 30.3697 22.5861 30.0844 22.3151Z" fill="#CCEFFF"/>
<path d="M25.782 25.1027C25.1324 25.1027 24.6703 24.8221 24.5092 24.6894L24.7777 24.2608C24.9495 24.3765 25.345 24.6129 25.7659 24.6129C26.0387 24.6129 26.2278 24.5042 26.2278 24.317C26.2278 24.0871 25.8285 24.0126 25.6101 23.9547C25.4275 23.9071 24.6058 23.7974 24.6058 23.2098C24.6058 22.6441 25.124 22.3271 25.7122 22.3271C26.3296 22.3271 26.6592 22.5653 26.8132 22.6945L26.5231 23.1078C26.3799 23.0057 26.0611 22.8118 25.7068 22.8118C25.4457 22.8118 25.2772 22.9178 25.2772 23.1129C25.2772 23.3563 25.7264 23.4259 25.8303 23.4496C26.0237 23.4973 26.9206 23.6273 26.9206 24.2557C26.9206 24.9985 26.1329 25.1027 25.782 25.1027Z" fill="#00C3FF"/>
<path d="M21.4426 25.0517V21.4292H23.0592C23.7991 21.4292 24.2729 22.0755 24.2729 22.6333C24.2729 23.2908 23.7468 23.8374 23.086 23.8374H22.1837V25.0517H21.4426ZM22.1837 23.22H23.043C23.303 23.22 23.521 22.9896 23.521 22.6333C23.521 22.3272 23.3254 22.0466 23.0108 22.0466H22.1837V23.22Z" fill="#00C3FF"/>
<path d="M24.0023 21.8918V23.3976C24.1717 23.1886 24.2729 22.9216 24.2729 22.6333C24.2729 22.3816 24.1762 22.1121 24.0023 21.8918Z" fill="#00C3FF"/>
</g>
<defs>
<clipPath id="clip0_2_20">
<rect width="17.186" height="16.3267" fill="white" transform="translate(15.4093 15.1664)"/>
</clipPath>
</defs>
</svg>
