<svg width="47" height="47" viewBox="0 0 47 47" fill="none" xmlns="http://www.w3.org/2000/svg">
<g clip-path="url(#clip0_2_49)">
<path d="M31.7469 32.1674H15.4202V15.8407H31.7469V32.1674Z" fill="#FF80E4"/>
<path d="M31.7469 32.1674H23.5836V15.8407H31.7469V32.1674Z" fill="#FF80E4"/>
<path d="M30.7903 31.2108H16.3769V16.7974H30.7903V31.2108Z" fill="#7F1363"/>
<path d="M30.7903 31.2108H23.5836V16.7974H30.7903V31.2108Z" fill="#7F1363"/>
<path d="M20.0906 21.6316L21.4452 23.652L22.7922 21.6316H23.9325L21.9962 24.3867L23.8712 27.0653H22.7309L21.4452 25.1214L20.1519 27.0653H19.0039L20.8789 24.3867L18.9426 21.6316H20.0906Z" fill="#FF80E4"/>
<path d="M25.8075 27.1418C24.6301 27.1418 23.9018 26.1605 23.9018 25.0602C23.9018 23.8127 24.7417 22.9862 25.6926 22.9862C26.4982 22.9862 26.9145 23.5296 27.0472 23.7592V21.4785H28.0727V25.8867C28.0727 25.9939 28.2232 26.1878 28.31 26.1929V27.0653C28.1313 27.101 27.9859 27.1189 27.8737 27.1189C27.1332 27.1189 27.2003 26.3689 27.2003 26.3689C27.0523 26.6241 26.6111 27.1418 25.8075 27.1418ZM26.0753 26.2694C26.7188 26.2694 27.0115 25.6929 27.0472 25.5959V24.6393C27.0064 24.5271 26.639 23.8586 26.0141 23.8586C25.3157 23.8586 24.9656 24.5515 24.9656 25.0831C24.9656 25.6676 25.3954 26.2694 26.0753 26.2694Z" fill="#FF80E4"/>
<path d="M23.5836 21.6316V22.1281L23.9324 21.6316H23.5836Z" fill="#FF80E4"/>
<path d="M23.5836 27.0653H23.8712L23.5836 26.6543V27.0653Z" fill="#FF80E4"/>
</g>
<defs>
<clipPath id="clip0_2_49">
<rect width="16.3267" height="16.3267" fill="white" transform="translate(15.4202 15.8407)"/>
</clipPath>
</defs>
</svg>
